<svg width="15" height="20" viewBox="0 0 15 20" fill="none" xmlns="http://www.w3.org/2000/svg">
<rect width="15" height="20" fill="#1E1E1E"/>
<rect x="-612" y="-686" width="1194" height="834" rx="50" fill="white"/>
<rect x="-23" y="-24" width="378" height="66" rx="30" fill="#D9D8D8"/>
<path d="M7.5 12.6316C6.60714 12.6316 5.84822 12.3246 5.22322 11.7105C4.59822 11.0965 4.28571 10.3509 4.28571 9.47368V3.15789C4.28571 2.2807 4.59822 1.53509 5.22322 0.921053C5.84822 0.307018 6.60714 0 7.5 0C8.39286 0 9.15179 0.307018 9.77679 0.921053C10.4018 1.53509 10.7143 2.2807 10.7143 3.15789V9.47368C10.7143 10.3509 10.4018 11.0965 9.77679 11.7105C9.15179 12.3246 8.39286 12.6316 7.5 12.6316ZM6.42857 20V16.7632C4.57143 16.5175 3.03571 15.7018 1.82143 14.3158C0.607143 12.9298 0 11.3158 0 9.47368H2.14286C2.14286 10.9298 2.66536 12.1712 3.71036 13.1979C4.75536 14.2246 6.01857 14.7375 7.5 14.7368C8.98143 14.7361 10.245 14.2228 11.2907 13.1968C12.3364 12.1709 12.8586 10.9298 12.8571 9.47368H15C15 11.3158 14.3929 12.9298 13.1786 14.3158C11.9643 15.7018 10.4286 16.5175 8.57143 16.7632V20H6.42857Z" fill="#7A7A7A"/>
</svg>
