<svg width="10" height="10" viewBox="0 0 10 10" fill="none" xmlns="http://www.w3.org/2000/svg">
<rect width="10" height="10" fill="#1E1E1E"/>
<g id="Frame 13">
<rect x="-894" y="-679" width="1194" height="834" rx="50" fill="white"/>
<rect id="Rectangle 20" x="-305" y="-17" width="378" height="66" rx="30" fill="#D9D8D8"/>
<rect id="Rectangle 21" x="-6" y="-5" width="50" height="19" rx="9.5" fill="#BDBDBD"/>
<path id="Vector" d="M4.19674 5.80327L9 1M4.19674 5.80327L5.72505 8.85989C5.7442 8.90169 5.77496 8.93712 5.81367 8.96196C5.85237 8.9868 5.89739 9 5.94338 9C5.98936 9 6.03438 8.9868 6.07309 8.96196C6.11179 8.93712 6.14255 8.90169 6.16171 8.85989L9 1M4.19674 5.80327L1.14011 4.27495C1.09831 4.2558 1.06288 4.22504 1.03804 4.18633C1.0132 4.14763 1 4.10261 1 4.05662C1 4.01064 1.0132 3.96562 1.03804 3.92691C1.06288 3.88821 1.09831 3.85745 1.14011 3.83829L9 1" stroke="#7A7A7A" stroke-linecap="round" stroke-linejoin="round"/>
</g>
</svg>
