<svg width="9" height="9" viewBox="0 0 9 9" fill="none" xmlns="http://www.w3.org/2000/svg">
<rect width="9" height="9" fill="#1E1E1E"/>
<g id="Frame 13">
<rect x="-893" y="-702" width="1194" height="834" rx="50" fill="white"/>
<rect id="Rectangle 20" x="-304" y="-40" width="378" height="66" rx="30" fill="#D9D8D8"/>
<rect id="Rectangle 22" x="-7" y="-5" width="54" height="19" rx="9.5" fill="#BDBDBD"/>
<g id="Group">
<path id="Vector" d="M2.91514 2.91521C2.99953 2.83085 3.11397 2.78346 3.23329 2.78346C3.35261 2.78346 3.46705 2.83085 3.55144 2.91521L4.52074 3.88406L5.48959 2.91521C5.5311 2.87223 5.58076 2.83795 5.63566 2.81437C5.69056 2.79078 5.74961 2.77837 5.80936 2.77785C5.86911 2.77733 5.92837 2.78872 5.98367 2.81134C6.03897 2.83397 6.08922 2.86738 6.13147 2.90963C6.17372 2.95189 6.20713 3.00213 6.22976 3.05743C6.25239 3.11274 6.26377 3.17199 6.26325 3.23174C6.26273 3.29149 6.25032 3.35054 6.22674 3.40544C6.20315 3.46035 6.16887 3.51 6.12589 3.55151L5.15704 4.52081L6.12589 5.48966C6.20786 5.57453 6.25322 5.6882 6.25219 5.80619C6.25117 5.92418 6.20384 6.03705 6.12041 6.12048C6.03697 6.20391 5.92411 6.25124 5.80612 6.25226C5.68813 6.25329 5.57446 6.20793 5.48959 6.12596L4.52074 5.15711L3.55144 6.12596C3.46624 6.20597 3.35326 6.24969 3.2364 6.24787C3.11955 6.24606 3.00798 6.19885 2.92531 6.11624C2.84264 6.03363 2.79535 5.92209 2.79345 5.80523C2.79155 5.68838 2.8352 5.57536 2.91514 5.49011L3.88399 4.52126L2.91514 3.55196C2.83078 3.46757 2.78339 3.35314 2.78339 3.23381C2.78339 3.11449 2.83078 3.00005 2.91514 2.91566" fill="#7A7A7A"/>
<path id="Vector_2" fill-rule="evenodd" clip-rule="evenodd" d="M4.5 0C2.01465 0 0 2.01465 0 4.5C0 6.98535 2.01465 9 4.5 9C6.98535 9 9 6.98535 9 4.5C9 2.01465 6.98535 0 4.5 0ZM0.9 4.5C0.9 3.54522 1.27928 2.62955 1.95442 1.95442C2.62955 1.27928 3.54522 0.9 4.5 0.9C5.45478 0.9 6.37045 1.27928 7.04558 1.95442C7.72072 2.62955 8.1 3.54522 8.1 4.5C8.1 5.45478 7.72072 6.37045 7.04558 7.04558C6.37045 7.72072 5.45478 8.1 4.5 8.1C3.54522 8.1 2.62955 7.72072 1.95442 7.04558C1.27928 6.37045 0.9 5.45478 0.9 4.5Z" fill="#7A7A7A"/>
</g>
</g>
</svg>
